<svg width="400" height="100" viewBox="0 0 400 100" fill="none" xmlns="http://www.w3.org/2000/svg">
<circle cx="50" cy="50" r="40" fill="#0A2342"/>
<path d="M34.7581 53.125V54.7917C34.7581 58.5417 36.1935 61.4583 39.0645 63.5417C41.9355 65.625 45.5806 66.6667 50 66.6667C52.7258 66.6667 55.3226 65.5469 57.8065 63.3073C60.2903 61.0677 61.5323 57.8646 61.5323 53.6979V27.0833H56.2903V29.1667C54.4355 27.2917 52.1371 26.3542 49.3952 26.3542C45.8763 26.3542 42.871 27.5781 40.379 30.026C37.8871 32.474 36.6411 35.7552 36.6411 39.8698C36.6411 43.9844 37.8871 47.2656 40.379 49.7135C42.871 52.1615 45.8763 53.3854 49.3952 53.3854C52.1371 53.3854 54.4355 52.4479 56.2903 50.5729V53.6979C56.2903 56.0937 55.5 57.8646 53.9194 59.0104C52.3387 60.1562 50.2419 60.7292 47.629 60.7292C45.0161 60.7292 43.1183 60.1562 41.9355 59.0104C40.7527 57.8646 40.1613 56.4583 40.1613 54.7917V53.125H34.7581ZM49.3952 31.9792C51.129 31.9792 52.6935 32.5781 54.0887 33.776C55.4839 34.974 56.1815 36.901 56.1815 39.5573C56.1815 42.2135 55.4839 44.1406 54.0887 45.3385C52.6935 46.5365 51.129 47.1354 49.3952 47.1354C47.6613 47.1354 46.0968 46.5365 44.7016 45.3385C43.3065 44.1406 42.6089 42.2135 42.6089 39.5573C42.6089 36.901 43.3065 34.974 44.7016 33.776C46.0968 32.5781 47.6613 31.9792 49.3952 31.9792Z" fill="white"/>
<path d="M8.8 59.2C13.6 55.2 18.4 53.2 24 53.2C29.6 53.2 34.4 55.2 39.2 59.2C44 63.2 48.8 65.2 54.4 65.2C60 65.2 64.8 63.2 69.6 59.2C74.4 55.2 79.2 53.2 84.8 53.2C90.4 53.2 95.2 55.2 100 59.2L97.6 61.6C93.6 58.4 89.6 56.8 84.8 56.8C80 56.8 76 58.4 72 61.6C68 64.8 64 66.4 59.2 66.4C54.4 66.4 50.4 64.8 46.4 61.6C42.4 58.4 38.4 56.8 33.6 56.8C28.8 56.8 24.8 58.4 20.8 61.6L8.8 59.2Z" fill="#0080C0"/>
<text x="110" y="65" font-family="Arial, sans-serif" font-size="50" font-weight="bold" fill="white">aqua</text>
<text x="230" y="65" font-family="Arial, sans-serif" font-size="50" font-weight="bold" fill="#0080C0">insight</text>
</svg>
